# xmcd
#
# Track frame offsets:
#	150
#	15482
#	27720
#	41100
#	54617
#	67337
#	81880
#	90632
#	100415
#	113157
#	126712
#	137995
#	147812
#	157887
#	172795
#	187112
#	200320
#	210865
#	222395
#	233092
#
# Disc length: 3300 seconds
#
# Revision: 1
# Processed by: cddbd v1.5.1PL0 Copyright (c) Steve Scherf et al.
# Submitted via: audiograbber 1.83.01
#
DISCID=270ce214
DTITLE=Country - The Country Collection Disk #5
DYEAR=1900
DGENRE=Country
TTITLE0=Jim Reeves - Blizzard
TTITLE1=Conway Twitty - Linda On My  Mind
TTITLE2=Grand Junction - Freight Train
TTITLE3=George Jones - Cold Cold Heart
TTITLE4=Bob Wills - If He's Movin' In
TTITLE5=Loretta Lynn - Coal Miners Daughter
TTITLE6=Buck Owens - Why Don't Daddy Stay
TTITLE7=Eddie Jones - Deep In The Heart Of Texas
TTITLE8=Conway Twitty - I See The Want In Your Eyes
TTITLE9=Johnny Paycheck - She's All I've Got
TTITLE10=Jime Reeves - Am I Losing You
TTITLE11=Dave Dudley - Cowboy Boots
TTITLE12=Brenda Lee - I'm Sorry
TTITLE13=Michael Jones - My Woman My Woman
TTITLE14=Cathy Matea - Heart Of The Country
TTITLE15=Bobby Helms - My specail Angel
TTITLE16=Ricky Nelson - Hello Mary Lou
TTITLE17=Patsy Cline - Lost Again
TTITLE18=Conway Twitty - Only Makebelieve
TTITLE19=Carter Family - Will LYou Remember Me
EXTD=
EXTT0=
EXTT1=
EXTT2=
EXTT3=
EXTT4=
EXTT5=
EXTT6=
EXTT7=
EXTT8=
EXTT9=
EXTT10=
EXTT11=
EXTT12=
EXTT13=
EXTT14=
EXTT15=
EXTT16=
EXTT17=
EXTT18=
EXTT19=
PLAYORDER=
